<svg xmlns="http://www.w3.org/2000/svg" width="289" height="273" fill="none"><circle cx="2" cy="2" r="2" fill="#D9D9D9" transform="matrix(-1 0 0 1 65 11)"/><circle cx="2" cy="2" r="2" fill="#D9D9D9" transform="matrix(-1 0 0 1 40 11)"/><circle cx="2" cy="2" r="2" fill="#D9D9D9" transform="matrix(-1 0 0 1 15 11)"/><circle cx="2" cy="2" r="2" fill="#D9D9D9" transform="matrix(-1 0 0 1 65 36)"/><circle cx="2" cy="2" r="2" fill="#D9D9D9" transform="matrix(-1 0 0 1 40 36)"/><circle cx="2" cy="2" r="2" fill="#D9D9D9" transform="matrix(-1 0 0 1 15 36)"/><circle cx="2" cy="2" r="2" fill="#D9D9D9" transform="matrix(-1 0 0 1 40 61)"/><circle cx="2" cy="2" r="2" fill="#D9D9D9" transform="matrix(-1 0 0 1 15 61)"/><circle cx="2" cy="2" r="2" fill="#D9D9D9" transform="matrix(-1 0 0 1 40 86)"/><circle cx="2" cy="2" r="2" fill="#D9D9D9" transform="matrix(-1 0 0 1 15 86)"/><circle cx="2" cy="2" r="2" fill="#D9D9D9" transform="matrix(-1 0 0 1 40 111)"/><circle cx="2" cy="2" r="2" fill="#D9D9D9" transform="matrix(-1 0 0 1 15 111)"/><circle cx="2" cy="2" r="2" fill="#D9D9D9" transform="matrix(-1 0 0 1 40 136)"/><circle cx="2" cy="2" r="2" fill="#D9D9D9" transform="matrix(-1 0 0 1 15 136)"/><circle cx="2" cy="2" r="2" fill="#D9D9D9" transform="matrix(-1 0 0 1 40 161)"/><circle cx="2" cy="2" r="2" fill="#D9D9D9" transform="matrix(-1 0 0 1 15 161)"/><circle cx="2" cy="2" r="2" fill="#D9D9D9" transform="matrix(-1 0 0 1 40 186)"/><circle cx="2" cy="2" r="2" fill="#D9D9D9" transform="matrix(-1 0 0 1 15 186)"/><circle cx="2" cy="2" r="2" fill="#D9D9D9" transform="matrix(-1 0 0 1 40 211)"/><circle cx="2" cy="2" r="2" fill="#D9D9D9" transform="matrix(-1 0 0 1 15 211)"/><circle cx="2" cy="2" r="2" fill="#D9D9D9" transform="matrix(0 -1 -1 0 289 15)"/><circle cx="2" cy="2" r="2" fill="#D9D9D9" transform="matrix(0 -1 -1 0 264 15)"/><circle cx="2" cy="2" r="2" fill="#D9D9D9" transform="matrix(0 -1 -1 0 239 40)"/><circle cx="2" cy="2" r="2" fill="#D9D9D9" transform="matrix(0 -1 -1 0 239 15)"/><circle cx="2" cy="2" r="2" fill="#D9D9D9" transform="matrix(0 -1 -1 0 214 40)"/><circle cx="2" cy="2" r="2" fill="#D9D9D9" transform="matrix(0 -1 -1 0 214 15)"/><circle cx="2" cy="2" r="2" fill="#D9D9D9" transform="matrix(0 -1 -1 0 189 40)"/><circle cx="2" cy="2" r="2" fill="#D9D9D9" transform="matrix(0 -1 -1 0 189 15)"/><circle cx="2" cy="2" r="2" fill="#D9D9D9" transform="matrix(0 -1 -1 0 164 40)"/><circle cx="2" cy="2" r="2" fill="#D9D9D9" transform="matrix(0 -1 -1 0 164 15)"/><circle cx="2" cy="2" r="2" fill="#D9D9D9" transform="matrix(0 -1 -1 0 139 40)"/><circle cx="2" cy="2" r="2" fill="#D9D9D9" transform="matrix(0 -1 -1 0 139 15)"/><circle cx="2" cy="2" r="2" fill="#D9D9D9" transform="matrix(0 -1 -1 0 114 40)"/><circle cx="2" cy="2" r="2" fill="#D9D9D9" transform="matrix(0 -1 -1 0 114 15)"/><circle cx="2" cy="2" r="2" fill="#D9D9D9" transform="matrix(0 -1 -1 0 89 40)"/><circle cx="2" cy="2" r="2" fill="#D9D9D9" transform="matrix(0 -1 -1 0 89 15)"/></svg>