<svg width="16" height="9" viewBox="0 0 16 9" fill="none" xmlns="http://www.w3.org/2000/svg">
<path d="M0.542147 1.75833C0.506725 1.65255 0.492903 1.54072 0.501503 1.42949C0.510103 1.31827 0.540949 1.2099 0.592213 1.11081C0.643476 1.01172 0.714112 0.923941 0.799935 0.852664C0.885757 0.781387 0.985017 0.728067 1.09183 0.695867C1.19864 0.663667 1.31083 0.653242 1.42175 0.665209C1.53267 0.677177 1.64005 0.711293 1.73754 0.765536C1.83503 0.819779 1.92063 0.893045 1.98927 0.980988C2.05791 1.06893 2.1082 1.16976 2.13715 1.2775C3.87548 7.09917 12.1221 7.1 13.8621 1.28083C13.8933 1.17589 13.9449 1.07811 14.0139 0.993085C14.0828 0.908061 14.1679 0.837456 14.2642 0.7853C14.3604 0.733145 14.466 0.70046 14.5749 0.689113C14.6838 0.677766 14.7939 0.687979 14.8988 0.719168C15.0038 0.750357 15.1015 0.801912 15.1866 0.870888C15.2716 0.939865 15.3422 1.02491 15.3943 1.12118C15.4465 1.21744 15.4792 1.32303 15.4905 1.43193C15.5019 1.54082 15.4917 1.65089 15.4605 1.75583C15.1573 2.79849 14.643 3.76771 13.9496 4.60333L15.0121 5.66667C15.1639 5.82384 15.2479 6.03434 15.246 6.25284C15.2441 6.47133 15.1565 6.68034 15.002 6.83485C14.8475 6.98936 14.6385 7.077 14.42 7.0789C14.2015 7.0808 13.991 6.9968 13.8338 6.845L12.7413 5.7525C12.1517 6.19709 11.5004 6.55334 10.808 6.81L11.1055 7.9225C11.1372 8.02921 11.1473 8.1412 11.135 8.25185C11.1227 8.3625 11.0884 8.46957 11.0341 8.56674C10.9798 8.66391 10.9065 8.74921 10.8187 8.8176C10.7308 8.886 10.6302 8.93609 10.5226 8.96494C10.4151 8.99378 10.3029 9.00079 10.1926 8.98555C10.0823 8.9703 9.97623 8.93311 9.88056 8.87618C9.78489 8.81925 9.7016 8.74372 9.6356 8.65407C9.56961 8.56441 9.52225 8.46243 9.49631 8.35417L9.19298 7.22333C8.40381 7.34 7.59715 7.34 6.80798 7.22333L6.50465 8.35417C6.47872 8.46243 6.43135 8.56441 6.36536 8.65407C6.29936 8.74372 6.21607 8.81925 6.1204 8.87618C6.02473 8.93311 5.91863 8.9703 5.80835 8.98555C5.69807 9.00079 5.58585 8.99378 5.47832 8.96494C5.3708 8.93609 5.27014 8.886 5.1823 8.8176C5.09445 8.74921 5.0212 8.66391 4.96687 8.56674C4.91254 8.46957 4.87823 8.3625 4.86597 8.25185C4.85371 8.1412 4.86374 8.02921 4.89548 7.9225L5.19298 6.81C4.50052 6.55306 3.84923 6.19653 3.25965 5.75167L2.16798 6.845C2.01172 7.00148 1.79971 7.08947 1.57857 7.08963C1.35743 7.08979 1.14529 7.00209 0.988814 6.84583C0.832336 6.68958 0.74434 6.47756 0.744184 6.25642C0.744028 6.03529 0.831724 5.82315 0.987981 5.66667L2.05048 4.60417C1.39715 3.82417 0.875481 2.87583 0.540481 1.75917" fill="#C7C7C7"/>
</svg>
