<svg width="12" height="13" viewBox="0 0 12 13" fill="none" xmlns="http://www.w3.org/2000/svg">
<path d="M5.554 8.639C5.46292 8.7333 5.41252 8.8596 5.41366 8.9907C5.4148 9.1218 5.46739 9.24721 5.56009 9.33991C5.65279 9.43261 5.7782 9.4852 5.9093 9.48634C6.0404 9.48748 6.1667 9.43708 6.261 9.346L8.928 6.669C8.95128 6.64578 8.96975 6.61819 8.98236 6.58782C8.99496 6.55744 9.00145 6.52488 9.00145 6.492C9.00145 6.45912 8.99496 6.42656 8.98236 6.39618C8.96975 6.36581 8.95128 6.33822 8.928 6.315L6.261 3.639C6.1667 3.54792 6.0404 3.49752 5.9093 3.49866C5.7782 3.4998 5.65279 3.55239 5.56009 3.64509C5.46739 3.73779 5.4148 3.8632 5.41366 3.9943C5.41252 4.1254 5.46292 4.2517 5.554 4.346L7.2 6H0.5C0.367392 6 0.240215 6.05268 0.146447 6.14645C0.0526784 6.24021 0 6.36739 0 6.5C0 6.63261 0.0526784 6.75979 0.146447 6.85355C0.240215 6.94732 0.367392 7 0.5 7H7.2L5.554 8.639ZM11 0H4.5C4.36739 0 4.24021 0.0526784 4.14645 0.146447C4.05268 0.240215 4 0.367392 4 0.5C4 0.632608 4.05268 0.759785 4.14645 0.853553C4.24021 0.947322 4.36739 1 4.5 1H10.5C10.6326 1 10.7598 1.05268 10.8536 1.14645C10.9473 1.24021 11 1.36739 11 1.5V11.5C11 11.6326 10.9473 11.7598 10.8536 11.8536C10.7598 11.9473 10.6326 12 10.5 12H4.25C4.11739 12 3.99021 12.0527 3.89645 12.1464C3.80268 12.2402 3.75 12.3674 3.75 12.5C3.75 12.6326 3.80268 12.7598 3.89645 12.8536C3.99021 12.9473 4.11739 13 4.25 13H11C11.2652 13 11.5196 12.8946 11.7071 12.7071C11.8946 12.5196 12 12.2652 12 12V1C12 0.734784 11.8946 0.48043 11.7071 0.292893C11.5196 0.105357 11.2652 0 11 0Z" fill="black"/>
</svg>
