<svg width="18" height="11" viewBox="0 0 18 11" fill="none" xmlns="http://www.w3.org/2000/svg">
<path d="M9.54295 9.93001L17.5079 1.57051C17.6409 1.43103 17.7151 1.24571 17.7151 1.05301C17.7151 0.860302 17.6409 0.674992 17.5079 0.535509L17.4989 0.526508C17.4345 0.458655 17.3569 0.404626 17.2709 0.367705C17.1849 0.330785 17.0923 0.311746 16.9987 0.311746C16.9051 0.311746 16.8125 0.330785 16.7265 0.367705C16.6405 0.404626 16.5629 0.458655 16.4984 0.526508L8.99844 8.39851L1.50145 0.526508C1.43699 0.458655 1.3594 0.404626 1.2734 0.367705C1.1874 0.330785 1.09479 0.311746 1.0012 0.311746C0.907606 0.311746 0.814995 0.330785 0.728996 0.367705C0.642996 0.404626 0.565407 0.458655 0.500946 0.526508L0.491945 0.535509C0.358978 0.674992 0.284801 0.860302 0.284801 1.05301C0.284801 1.24571 0.358978 1.43103 0.491945 1.57051L8.45695 9.93001C8.52699 10.0035 8.61124 10.0621 8.70458 10.102C8.79791 10.142 8.8984 10.1627 8.99995 10.1627C9.10149 10.1627 9.20198 10.142 9.29532 10.102C9.38865 10.0621 9.4729 10.0035 9.54295 9.93001Z" fill="#19191B"/>
</svg>
