<svg width="11" height="18" viewBox="0 0 11 18" fill="none" xmlns="http://www.w3.org/2000/svg">
<path d="M1.07005 9.54301L9.42955 17.508C9.56904 17.641 9.75435 17.7151 9.94705 17.7151C10.1398 17.7151 10.3251 17.641 10.4646 17.508L10.4736 17.499C10.5414 17.4345 10.5954 17.357 10.6324 17.271C10.6693 17.185 10.6883 17.0923 10.6883 16.9988C10.6883 16.9052 10.6693 16.8126 10.6324 16.7266C10.5954 16.6406 10.5414 16.563 10.4736 16.4985L2.60155 8.99851L10.4736 1.50151C10.5414 1.43705 10.5954 1.35946 10.6324 1.27346C10.6693 1.18746 10.6883 1.09485 10.6883 1.00126C10.6883 0.907667 10.6693 0.815056 10.6324 0.729057C10.5954 0.643057 10.5414 0.565468 10.4736 0.501007L10.4646 0.492006C10.3251 0.359039 10.1398 0.284863 9.94705 0.284863C9.75435 0.284863 9.56904 0.359039 9.42955 0.492006L1.07005 8.45701C0.996534 8.52705 0.938006 8.6113 0.898015 8.70464C0.858023 8.79797 0.837402 8.89846 0.837402 9.00001C0.837402 9.10155 0.858023 9.20204 0.898015 9.29538C0.938006 9.38872 0.996534 9.47296 1.07005 9.54301Z" fill="black"/>
</svg>
