<svg width="11" height="18" viewBox="0 0 11 18" fill="none" xmlns="http://www.w3.org/2000/svg">
<path d="M9.92995 8.45699L1.57045 0.491994C1.43096 0.359027 1.24565 0.284851 1.05295 0.284851C0.860241 0.284851 0.674931 0.359027 0.535448 0.491994L0.526447 0.500994C0.458594 0.565454 0.404565 0.643044 0.367644 0.729043C0.330724 0.815043 0.311685 0.907654 0.311685 1.00124C0.311685 1.09483 0.330724 1.18745 0.367644 1.27344C0.404565 1.35944 0.458594 1.43703 0.526447 1.50149L8.39845 9.00149L0.526447 16.4985C0.458594 16.563 0.404565 16.6405 0.367644 16.7265C0.330724 16.8125 0.311685 16.9052 0.311685 16.9987C0.311685 17.0923 0.330724 17.1849 0.367644 17.2709C0.404565 17.3569 0.458594 17.4345 0.526447 17.499L0.535448 17.508C0.674931 17.641 0.860241 17.7151 1.05295 17.7151C1.24565 17.7151 1.43096 17.641 1.57045 17.508L9.92995 9.54299C10.0035 9.47295 10.062 9.3887 10.102 9.29536C10.142 9.20203 10.1626 9.10154 10.1626 8.99999C10.1626 8.89845 10.142 8.79796 10.102 8.70462C10.062 8.61128 10.0035 8.52704 9.92995 8.45699Z" fill="black"/>
</svg>
