<svg width="24" height="25" viewBox="0 0 24 25" fill="none" xmlns="http://www.w3.org/2000/svg">
<path d="M10.4865 15.9225C10.3408 16.0734 10.2601 16.2755 10.262 16.4852C10.2638 16.695 10.3479 16.8956 10.4962 17.044C10.6446 17.1923 10.8452 17.2764 11.055 17.2782C11.2647 17.2801 11.4668 17.1994 11.6177 17.0537L15.8849 12.7705C15.9221 12.7333 15.9517 12.6892 15.9719 12.6406C15.992 12.592 16.0024 12.5399 16.0024 12.4873C16.0024 12.4347 15.992 12.3826 15.9719 12.334C15.9517 12.2854 15.9221 12.2413 15.8849 12.2041L11.6177 7.9225C11.4668 7.77677 11.2647 7.69614 11.055 7.69796C10.8452 7.69978 10.6446 7.78392 10.4962 7.93224C10.3479 8.08057 10.2638 8.28122 10.262 8.49098C10.2601 8.70073 10.3408 8.90282 10.4865 9.0537L13.1201 11.7001H2.4001C2.18792 11.7001 1.98444 11.7844 1.83441 11.9344C1.68438 12.0844 1.6001 12.2879 1.6001 12.5001C1.6001 12.7123 1.68438 12.9158 1.83441 13.0658C1.98444 13.2158 2.18792 13.3001 2.4001 13.3001H13.1201L10.4865 15.9225ZM19.2001 2.1001H8.8001C8.58792 2.1001 8.38444 2.18438 8.23441 2.33441C8.08438 2.48444 8.0001 2.68792 8.0001 2.9001C8.0001 3.11227 8.08438 3.31575 8.23441 3.46578C8.38444 3.61581 8.58792 3.7001 8.8001 3.7001H18.4001C18.6123 3.7001 18.8158 3.78438 18.9658 3.93441C19.1158 4.08444 19.2001 4.28792 19.2001 4.5001V20.5001C19.2001 20.7123 19.1158 20.9158 18.9658 21.0658C18.8158 21.2158 18.6123 21.3001 18.4001 21.3001H8.4001C8.18792 21.3001 7.98444 21.3844 7.83441 21.5344C7.68438 21.6844 7.6001 21.8879 7.6001 22.1001C7.6001 22.3123 7.68438 22.5158 7.83441 22.6658C7.98444 22.8158 8.18792 22.9001 8.4001 22.9001H19.2001C19.6244 22.9001 20.0314 22.7315 20.3315 22.4315C20.6315 22.1314 20.8001 21.7244 20.8001 21.3001V3.7001C20.8001 3.27575 20.6315 2.86878 20.3315 2.56873C20.0314 2.26867 19.6244 2.1001 19.2001 2.1001Z" fill="#8C6348"/>
</svg>
