<svg width="20" height="14" viewBox="0 0 20 14" fill="none" xmlns="http://www.w3.org/2000/svg">
<path d="M9.99967 4.5C10.6627 4.5 11.2986 4.76339 11.7674 5.23223C12.2363 5.70107 12.4997 6.33696 12.4997 7C12.4997 7.66304 12.2363 8.29893 11.7674 8.76777C11.2986 9.23661 10.6627 9.5 9.99967 9.5C9.33663 9.5 8.70075 9.23661 8.23191 8.76777C7.76307 8.29893 7.49967 7.66304 7.49967 7C7.49967 6.33696 7.76307 5.70107 8.23191 5.23223C8.70075 4.76339 9.33663 4.5 9.99967 4.5ZM9.99967 0.75C14.1663 0.75 17.7247 3.34167 19.1663 7C17.7247 10.6583 14.1663 13.25 9.99967 13.25C5.83301 13.25 2.27467 10.6583 0.833008 7C2.27467 3.34167 5.83301 0.75 9.99967 0.75ZM2.64967 7C3.32322 8.37526 4.3691 9.53396 5.66841 10.3444C6.96772 11.1548 8.46834 11.5844 9.99967 11.5844C11.531 11.5844 13.0316 11.1548 14.3309 10.3444C15.6303 9.53396 16.6761 8.37526 17.3497 7C16.6761 5.62474 15.6303 4.46604 14.3309 3.65562C13.0316 2.8452 11.531 2.41557 9.99967 2.41557C8.46834 2.41557 6.96772 2.8452 5.66841 3.65562C4.3691 4.46604 3.32322 5.62474 2.64967 7Z" fill="#C7C7C7"/>
</svg>
