<svg width="20" height="20" viewBox="0 0 20 20" fill="none" xmlns="http://www.w3.org/2000/svg">
<path d="M5.51667 8.99167C6.71667 11.35 8.65 13.2833 11.0083 14.4833L12.8417 12.65C13.075 12.4167 13.4 12.35 13.6917 12.4417C14.625 12.75 15.625 12.9167 16.6667 12.9167C16.8877 12.9167 17.0996 13.0045 17.2559 13.1607C17.4122 13.317 17.5 13.529 17.5 13.75V16.6667C17.5 16.8877 17.4122 17.0996 17.2559 17.2559C17.0996 17.4122 16.8877 17.5 16.6667 17.5C12.9094 17.5 9.30609 16.0074 6.64932 13.3507C3.99256 10.6939 2.5 7.09057 2.5 3.33333C2.5 3.11232 2.5878 2.90036 2.74408 2.74408C2.90036 2.5878 3.11232 2.5 3.33333 2.5H6.25C6.47101 2.5 6.68298 2.5878 6.83926 2.74408C6.99554 2.90036 7.08333 3.11232 7.08333 3.33333C7.08333 4.375 7.25 5.375 7.55833 6.30833C7.65 6.6 7.58333 6.925 7.35 7.15833L5.51667 8.99167Z" fill="#19191B"/>
</svg>
