<svg width="42" height="38" viewBox="0 0 42 38" fill="none" xmlns="http://www.w3.org/2000/svg">
<path d="M35.5834 10.5832V6.4165H31.4167V4.33317H35.5834V0.166504H37.6668V4.33317H41.8334V6.4165H37.6668V10.5832H35.5834ZM18.9167 30.854C21.0931 30.854 22.9334 30.104 24.4376 28.604C25.9376 27.0998 26.6876 25.2596 26.6876 23.0832C26.6876 20.9068 25.9376 19.0665 24.4376 17.5623C22.932 16.0623 21.0917 15.3123 18.9167 15.3123C16.7417 15.3123 14.9015 16.0623 13.3959 17.5623C11.8959 19.0665 11.1459 20.9068 11.1459 23.0832C11.1459 25.2596 11.8966 27.0998 13.398 28.604C14.9008 30.104 16.7404 30.854 18.9167 30.854ZM18.9167 28.7707C17.2987 28.7707 15.9459 28.2276 14.8584 27.1415C13.7709 26.0554 13.2272 24.7026 13.2272 23.0832C13.2272 21.4651 13.7709 20.1123 14.8584 19.0248C15.9459 17.9373 17.2987 17.3936 18.9167 17.3936C20.5348 17.3936 21.8876 17.9373 22.9751 19.0248C24.0626 20.1123 24.6063 21.4651 24.6063 23.0832C24.6063 24.7012 24.0626 26.054 22.9751 27.1415C21.8876 28.229 20.5348 28.7728 18.9167 28.7728M3.53133 37.6665C2.573 37.6665 1.773 37.3457 1.13133 36.704C0.488276 36.0609 0.166748 35.2603 0.166748 34.3019V11.8644C0.166748 10.9061 0.488276 10.1061 1.13133 9.46442C1.773 8.82136 2.573 8.49984 3.53133 8.49984H9.69383L13.548 4.33317H26.448V11.3853H30.6147V15.5519H37.6668V34.3019C37.6668 35.2603 37.3459 36.0603 36.7043 36.7019C36.0612 37.345 35.2605 37.6665 34.3022 37.6665H3.53133Z" fill="black"/>
</svg>
