<svg width="18" height="11" viewBox="0 0 18 11" fill="none" xmlns="http://www.w3.org/2000/svg">
<path d="M8.45705 0.570053L0.492055 8.92955C0.359088 9.06904 0.284912 9.25435 0.284912 9.44705C0.284912 9.63976 0.359088 9.82507 0.492055 9.96455L0.501055 9.97355C0.565515 10.0414 0.643105 10.0954 0.729104 10.1324C0.815104 10.1693 0.907715 10.1883 1.00131 10.1883C1.09489 10.1883 1.18751 10.1693 1.27351 10.1324C1.35951 10.0954 1.4371 10.0414 1.50155 9.97355L9.00156 2.10155L16.4986 9.97355C16.563 10.0414 16.6406 10.0954 16.7266 10.1324C16.8126 10.1693 16.9052 10.1883 16.9988 10.1883C17.0924 10.1883 17.185 10.1693 17.271 10.1324C17.357 10.0954 17.4346 10.0414 17.4991 9.97355L17.5081 9.96455C17.641 9.82507 17.7152 9.63976 17.7152 9.44705C17.7152 9.25435 17.641 9.06904 17.5081 8.92955L9.54305 0.570053C9.47301 0.496534 9.38876 0.438006 9.29542 0.398015C9.20209 0.358023 9.1016 0.337402 9.00005 0.337402C8.89851 0.337402 8.79802 0.358023 8.70468 0.398015C8.61135 0.438006 8.5271 0.496534 8.45705 0.570053Z" fill="#19191B"/>
</svg>
