<svg xmlns="http://www.w3.org/2000/svg" width="116" height="65" fill="none"><path fill="#19191B" d="M37.71 35.409c-1.082 0-2.08-.203-2.994-.608a5.838 5.838 0 0 1-2.216-1.775l2.056-2.522c.442.592.907 1.043 1.394 1.355a2.985 2.985 0 0 0 1.576.444c1.508 0 2.262-.903 2.262-2.71V19.131h-5.62v-2.686h9.299v12.938c0 2.024-.488 3.534-1.463 4.531-.974.996-2.406 1.495-4.295 1.495ZM52.057 35.315c-1.02 0-1.934-.202-2.741-.607-.792-.405-1.41-1.02-1.85-1.845-.443-.84-.663-1.907-.663-3.2V19.481h3.564v9.645c0 1.043.213 1.814.64 2.312.441.483 1.058.724 1.85.724.549 0 1.036-.116 1.462-.35.427-.249.762-.623 1.006-1.12.243-.515.365-1.153.365-1.916v-6.212h3.564v12.564h-3.381v-3.456l.617 1.004c-.411.872-1.02 1.534-1.828 1.985a5.312 5.312 0 0 1-2.605.654ZM65.504 32.56l.091-4.438 6.655-6.773h4.25l-6.427 6.937-1.85 1.541-2.72 2.732Zm-2.948 2.568v-21.72h3.564v21.72h-3.564Zm9.162 0L67.56 29.85l2.239-2.826 6.237 8.104h-4.318Z"/><path fill="#19191B" d="M11.73.874c-.426.427-.449.741-.449 5.39v4.942H7.867c-3.863 0-4.65.225-5.952 1.595C.927 13.856.5 15 .5 16.64c0 1.663.517 2.898 1.595 3.931 1.527 1.438 1.28 1.415 13.79 1.415 12.4 0 12.736.023 13.05 1.213.248.989-.09 1.707-.92 2.067-.63.247-2.291.314-8.535.314-8.558 0-8.715.023-10.198 1.415-1.1 1.056-1.595 2.246-1.595 3.976s.495 2.92 1.595 3.975c1.348 1.28 1.977 1.415 6.604 1.415 4.65 0 5.593.203 5.862 1.213.247.988-.09 1.707-.92 2.067-.63.247-2.314.314-8.58.314-8.716 0-8.85.022-10.333 1.595C.927 42.606.5 43.752.5 45.39c0 1.663.517 2.898 1.595 3.931 1.302 1.236 2.044 1.415 5.817 1.415h3.37v3.1c0 2.313.09 3.212.314 3.549.292.404.696.426 5.435.539l5.099.112.27.944c.65 2.2 2.493 4.267 4.829 5.413 1.123.561 1.46.606 3.818.606s2.695-.045 3.818-.606c.674-.337 1.64-.944 2.112-1.348 1.078-.876 2.538-3.1 2.74-4.133.18-.966.449-.966.629 0 .202 1.033 1.662 3.257 2.74 4.133.472.404 1.437 1.01 2.111 1.348 1.123.561 1.46.606 3.819.606 2.358 0 2.695-.045 3.818-.606 2.336-1.146 4.178-3.212 4.83-5.414l.269-.943h28.884l.27.944c.651 2.2 2.493 4.267 4.829 5.413 1.123.561 1.46.606 3.818.606 2.359 0 2.696-.045 3.819-.606 2.336-1.146 4.177-3.212 4.829-5.414l.269-.943 5.099-.112c4.739-.112 5.144-.135 5.436-.54.269-.381.314-2.515.314-12.937v-12.51l-2.246-10.535c-1.258-5.772-2.448-10.938-2.673-11.455-.629-1.415-1.999-2.785-3.504-3.504l-1.348-.629H83.156V3.57c0-3.571 4.92-3.144-35.937-3.144-34.747 0-35.04 0-35.489.449Zm67.832 24.707v21.563H42.84c-39.98 0-38.094.067-38.43-1.213-.248-.989.09-1.707.92-2.067.629-.247 2.291-.314 8.535-.314 8.558 0 8.715-.023 10.197-1.415 1.101-1.056 1.595-2.246 1.595-3.976s-.494-2.92-1.595-3.975c-1.347-1.28-1.976-1.415-6.603-1.415-4.65 0-5.593-.203-5.862-1.213-.247-.989.09-1.707.92-2.067.63-.247 2.292-.314 8.536-.314 8.557 0 8.715-.023 10.197-1.415 1.078-1.033 1.595-2.269 1.595-3.93 0-2.314-1.078-4.111-3.033-5.01-.83-.381-1.662-.426-12.308-.426-12.443 0-12.78-.023-13.095-1.213-.247-.989.09-1.707.921-2.067.629-.247 2.269-.314 8.31-.314 7.233 0 7.547-.023 7.974-.45.292-.291.45-.74.45-1.347s-.158-1.056-.45-1.348c-.404-.404-.74-.449-3.593-.449h-3.145V4.02H79.562V25.58Zm26.123-15.52c.471.27 1.033.898 1.28 1.392.853 1.662 1.572 1.55-9.434 1.55-9.59 0-9.905.022-10.332.45-.427.426-.449.74-.449 7.59v7.166l2.493 3.684c1.37 2.021 2.65 3.863 2.853 4.065.314.382 1.078.404 10.085.404h9.725v3.594h-1.347c-1.685 0-2.247.45-2.247 1.797 0 1.348.562 1.797 2.247 1.797h1.347v3.594h-28.75V9.387l10.849.067 10.826.067.854.54Zm2.627 6.648c0 .067.764 3.639 1.685 7.974.921 4.335 1.685 7.906 1.685 7.973 0 .068-3.864.113-8.58.113l-8.603-.023-2.066-3.1-2.09-3.1v-9.949h8.985c4.942 0 8.984.045 8.984.112ZM23.051 51.838c-.315.606-.652 1.392-.741 1.752l-.158.629-3.638.067-3.639.045v-3.594h8.76l-.584 1.1Zm17.879.247c-.36.741-.674 1.482-.674 1.684 0 .18-.09.337-.225.337-.112 0-.224-.157-.224-.359 0-.202-.292-.966-.674-1.684l-.674-1.326h3.144l-.673 1.348Zm46.74.045c-.38.786-.718 1.595-.785 1.82-.113.359-.944.381-14.532.336L57.91 54.22l-.157-.63c-.09-.358-.427-1.145-.741-1.751l-.584-1.1h31.894l-.651 1.392Zm24.236.404v1.797h-3.594c-3.234 0-3.616-.045-3.728-.404-.067-.202-.404-1.011-.786-1.797l-.652-1.393h8.76v1.797Zm-78.883-1.213c1.91.786 3.19 2.696 3.19 4.807 0 4.604-5.593 6.94-8.85 3.684-2.538-2.561-1.841-6.671 1.438-8.423.988-.517 3.077-.562 4.222-.068Zm17.97 0c1.908.786 3.189 2.696 3.189 4.807 0 4.604-5.593 6.94-8.85 3.684-2.538-2.561-1.842-6.671 1.438-8.423.988-.517 3.077-.562 4.222-.068Zm46.718 0c3.436 1.415 4.29 5.997 1.595 8.558a5.2 5.2 0 0 1-7.255-.067c-2.538-2.561-1.842-6.671 1.437-8.423.989-.517 3.077-.562 4.223-.068Z"/><path fill="#19191B" d="M29.7 54.78c-.293.292-.45.742-.45 1.348 0 .606.157 1.056.45 1.348.291.292.74.449 1.347.449.606 0 1.055-.157 1.348-.45.291-.291.449-.74.449-1.347 0-.606-.157-1.056-.45-1.348-.291-.292-.74-.449-1.347-.449s-1.056.157-1.348.45ZM47.668 54.78c-.292.292-.45.742-.45 1.348 0 .606.158 1.056.45 1.348.292.292.741.449 1.348.449.606 0 1.055-.157 1.347-.45.292-.291.45-.74.45-1.347 0-.606-.158-1.056-.45-1.348-.292-.292-.74-.449-1.347-.449s-1.056.157-1.348.45ZM94.387 54.78c-.292.292-.45.742-.45 1.348 0 1.19.607 1.797 1.797 1.797s1.797-.607 1.797-1.797c0-.606-.157-1.056-.449-1.348-.292-.292-.741-.449-1.348-.449-.606 0-1.055.157-1.347.45Z"/></svg>