<svg xmlns="http://www.w3.org/2000/svg" width="24" height="25" fill="none"><path fill="#19191B" d="M13 2.5H16.1l2.5.5c.6.3 1.2.6 1.7 1.2A5 5 0 0 1 21.5 6c.2.6.4 1.3.4 2.4V9.3l.1 2.2V16.6c-.1 1-.3 1.8-.5 2.4-.3.7-.7 1.3-1.2 1.8a5 5 0 0 1-1.7 1.2c-.7.2-1.4.4-2.5.4H15.2l-2.2.1H8c-1-.1-1.8-.3-2.4-.5-.7-.3-1.3-.7-1.8-1.2s-1-1-1.2-1.8A74.2 74.2 0 0 1 2 16V8.4l.5-2.5c.3-.6.7-1.2 1.2-1.7s1-1 1.8-1.2a75.8 75.8 0 0 1 3.1-.5H13Zm-1 5a5 5 0 1 0 0 10 5 5 0 0 0 0-10Zm0 2a3 3 0 1 1 0 6 3 3 0 0 1 0-6M17.3 6a1.3 1.3 0 1 0 0 2.5 1.3 1.3 0 0 0 0-2.5Z"/></svg>