<svg xmlns="http://www.w3.org/2000/svg" width="24" height="25" fill="none"><path fill="#19191B" d="M12 2.5a10 10 0 1 1-5 18.6l-5 1.4 1.4-5a10 10 0 0 1 8.6-15ZM8.6 7.8h-.2A1 1 0 0 0 8 8l-.3.2-.2.3c-.4.5-.6 1.1-.6 1.7 0 .5.1 1 .3 1.4.4 1 1.1 1.9 2 2.8l.6.6c1.2 1 2.5 1.7 3.9 2l.6.1h.5c.3 0 .6 0 .8-.2l.4-.2.2-.1.3-.3.2-.3.2-.7v-.4l-.2-.3-.6-.2-1.4-.7h-.2a.5.5 0 0 0-.3.1l-.8 1a.4.4 0 0 1-.4 0h-.4a6 6 0 0 1-1.6-1l-.4-.4-1-1.3v-.1l-.2-.2.1-.3.4-.4.2-.4c.1-.1.2-.3.1-.5l-.9-2c0-.2-.2-.3-.3-.3a4.4 4.4 0 0 0-.6 0h.2Z"/></svg>